# xmcd
#
# Track frame offsets: 
#        150
#        26544
#        46195
#        69800
#        90634
#        112334
#        127826
#        143504
#        168638
#        186941
#        212743
#        232445
#        253718
#
# Disc length: 3394 seconds
#
# Revision: 0
# Processed by: cddbd v1.5.2PL0 Copyright (c) Steve Scherf et al.
# Submitted via: ExactAudioCopy v0.99pb5
#
DISCID=b80d400d
DTITLE=Roman S.Czarny  - Roznosci
DYEAR=1900
DGENRE=Ballad
TTITLE0=01.Carpie Diem
TTITLE1=02.Czarna cebula i rzeznika pot
TTITLE2=03.Moja Madonna
TTITLE3=04.Imiona prawdziwej mi³osci
TTITLE4=05.Modlitwa o moje blokowisko
TTITLE5=06.Bardzo smutny góralski blues w Chicago noc¹ hej
TTITLE6=07.Piernikalia
TTITLE7=08.Homo Polonicus
TTITLE8=09.Dzieciaki
TTITLE9=10.Konsultancki blues
TTITLE10=11.Trzy pory roku
TTITLE11=12.Polak prawdziwy
TTITLE12=13.
EXTD=
EXTT0=
EXTT1=
EXTT2=
EXTT3=
EXTT4=
EXTT5=
EXTT6=
EXTT7=
EXTT8=
EXTT9=
EXTT10=
EXTT11=
EXTT12=
PLAYORDER=
